<svg xmlns="http://www.w3.org/2000/svg" xml:space="preserve" width="2000" height="1500" data-id="lg_SmfSa9NsiFel2mqBqi" data-version="1" viewBox="0 0 2000 1500"><path fill="#b19dd0" stroke="transparent" d="M0 0h2000v1500H0z"/><g data-padding="20"><path fill="#7a26c1" d="M685.738 1298.626 358.069 1030.46l187.82-185.068a361.75 361.75 0 0 1 389.14-78.641h231.201a86.767 86.767 0 0 1 0 173.535H987.195a28.703 28.703 0 1 0 0 57.407h202.89a102.23 102.23 0 0 0 76.414-34.34l218.75-249.422a90.044 90.044 0 0 1 135.132 119.01l-273.145 317.97a214.93 214.93 0 0 1-161.475 73.399H759.399Zm-58.456-751.019v-116.65a61.6 61.6 0 0 1 61.47-60.815h357.553c33.789-112.548 144.985-183.311 261.243-166.233 116.27 17.064 202.434 116.809 202.434 234.323s-86.164 217.258-202.434 234.322c-116.258 17.078-227.454-53.685-261.243-166.233h-97.384v41.81a61.47 61.47 0 1 1-122.811 0v-42.334h-76.018v41.81a61.47 61.47 0 1 1-122.81 0m549.172-109.047a96.203 96.203 0 1 0 96.204-96.205 96.34 96.34 0 0 0-96.204 96.205"/><path fill="transparent" stroke="transparent" stroke-width="1.664" d="M341.808 187.5h1316.384v1125H341.808z"/></g></svg>