<svg xmlns="http://www.w3.org/2000/svg" xml:space="preserve" width="2000" height="167" data-id="lg_SmfSa9NsiFel2mqBqi" data-version="1" viewBox="0 0 2000 167"><g data-padding="20"><g transform="translate(10 2.977)scale(.96435)"><rect width="401.003" height="167.24" x="425.863" y="-400.57" fill="none" rx="0" ry="0" transform="translate(480 400.45)"/><path fill="#434343" d="M988.245 111.87v12.58q-9.18 6.22-25.16 6.22-22.5 0-36.56-13.84t-14.06-37.66q0-22.5 14.28-36.63 14.28-14.14 35.89-14.14 15.54 0 25.31 5.33v12.28q-6.51-3.4-11.69-4.88t-13.62-1.48q-16.13 0-26.86 10.95t-10.73 28.57q0 18.35 10.66 29.3 10.65 10.95 28.26 10.95 14.21 0 24.28-7.55m43.36-71.77h-13.76v39.82h15.09q10.21 0 15.62-5.55 5.4-5.55 5.4-14.29 0-19.98-22.35-19.98m1.78 50.03h-15.54v39.37h-11.99V29.74h25.01q17.32 0 26.27 8.14t8.95 22.5q-.29 10.36-5.47 17.61t-14.65 10.21l26.19 41.3h-14.35Zm109.23 28.86v10.51h-55.65V29.74h54.91v10.51h-42.92v34.19h37.89v10.51h-37.89v34.04Zm76.21-15.99q0 13.18-9.03 20.35-9.03 7.18-23.23 7.18-15.69 0-26.64-6.36v-12.88q10.8 8.14 26.34 8.14 9.32 0 14.65-4.14 5.33-4.15 5.33-11.99 0-3.26-1.26-5.85t-4.14-4.73q-2.89-2.15-5.48-3.55-2.59-1.41-7.03-3.48-.89-.45-2.66-1.19-6.37-2.81-9.7-4.58-3.33-1.78-7.84-5.26t-6.59-8.06q-2.07-4.59-2.07-10.66 0-12.73 9.1-19.91 9.11-7.17 22.87-7.17 12.88 0 21.9 4.58v12.58q-9.02-5.92-21.6-5.92-9.03 0-14.36 4.22t-5.33 11.03q0 3.55 1.41 6.36 1.4 2.81 4.96 5.26 3.55 2.44 6.06 3.7 2.52 1.25 7.85 3.62 5.03 2.22 7.69 3.48 2.67 1.26 6.89 4 4.21 2.73 6.36 5.32t3.85 6.81 1.7 9.1m76.96-73.26v10.51h-26.94v89.25h-11.98V40.25h-26.94V29.74ZM779.832 136.633l-33.5-27.417 19.202-18.92a36.98 36.98 0 0 1 39.785-8.04h23.637a8.87 8.87 0 0 1 0 17.741h-18.304a2.935 2.935 0 1 0 0 5.87h20.743a10.45 10.45 0 0 0 7.812-3.512l22.365-25.5a9.206 9.206 0 0 1 13.815 12.167l-27.925 32.509a21.98 21.98 0 0 1-16.51 7.504h-43.59Zm-5.976-76.782V47.925a6.3 6.3 0 0 1 6.284-6.218h36.555c3.455-11.507 14.823-18.741 26.71-16.995C855.29 26.456 864.1 36.654 864.1 48.668s-8.81 22.212-20.697 23.957-23.254-5.489-26.71-16.995h-9.955v4.274a6.285 6.285 0 1 1-12.556 0v-4.328h-7.772v4.275a6.285 6.285 0 1 1-12.555 0m56.146-11.15a9.836 9.836 0 1 0 9.835-9.835 9.85 9.85 0 0 0-9.835 9.836"/></g><path fill="transparent" stroke="transparent" d="M719.5 0h561v167h-561z"/></g></svg>