<svg xmlns="http://www.w3.org/2000/svg" xml:space="preserve" width="2000" height="676" data-id="lg_SmfSa9NsiFel2mqBqi" data-version="1" viewBox="0 0 2000 676"><g data-padding="20"><path fill="#7a26c1" d="M811.163 667.663 614.271 506.525 727.129 395.32a217.37 217.37 0 0 1 233.83-47.254h138.927a52.138 52.138 0 0 1 0 104.275h-107.58a17.248 17.248 0 1 0 0 34.495h121.914a61.43 61.43 0 0 0 45.916-20.635l131.445-149.874a54.106 54.106 0 0 1 81.199 71.512l-164.13 191.064a129.15 129.15 0 0 1-97.029 44.104H855.425Zm-35.125-451.279v-70.093a37.016 37.016 0 0 1 36.936-36.543h214.85c20.304-67.63 87.12-110.15 156.978-99.888 69.866 10.254 121.64 70.189 121.64 140.802s-51.774 130.548-121.64 140.802c-69.858 10.262-136.674-32.26-156.978-99.888h-58.517v25.123a36.937 36.937 0 1 1-73.796 0v-25.438h-45.678v25.123a36.937 36.937 0 1 1-73.795 0m329.992-65.525a57.807 57.807 0 1 0 57.807-57.808 57.89 57.89 0 0 0-57.807 57.808"/><path fill="transparent" stroke="transparent" d="M604.5 0h791v676h-791z"/></g></svg>